<svg xmlns="http://www.w3.org/2000/svg" width="960" height="540" viewBox="0 0 960 540"><rect width="960" height="540" fill="white"/><text x="50" y="65" font-family="Arial" font-size="28" fill="#25394a">Graphical abstract — Demo</text><rect x="55" y="210" width="170" height="100" rx="10" fill="#d7e8f4"/><text x="75" y="266" font-family="Arial" font-size="20" fill="#25394a">Question</text><path d="M235 260H270" stroke="#34495b" stroke-width="3"/><path d="M260 254L273 260L260 266Z" fill="#34495b"/><rect x="285" y="210" width="170" height="100" rx="10" fill="#d6eeea"/><text x="305" y="266" font-family="Arial" font-size="20" fill="#25394a">Experiment</text><path d="M465 260H500" stroke="#34495b" stroke-width="3"/><path d="M490 254L503 260L490 266Z" fill="#34495b"/><rect x="515" y="210" width="170" height="100" rx="10" fill="#f4e2c7"/><text x="535" y="266" font-family="Arial" font-size="20" fill="#25394a">Evidence</text><path d="M695 260H730" stroke="#34495b" stroke-width="3"/><path d="M720 254L733 260L720 266Z" fill="#34495b"/><rect x="745" y="210" width="170" height="100" rx="10" fill="#e4ddf1"/><text x="765" y="266" font-family="Arial" font-size="20" fill="#25394a">Conclusion</text><text x="55" y="450" font-family="Arial" font-size="20" fill="#25394a">Editable vector paths and live text in both applications.</text></svg>